# This file uses centimeters as units for non-parametric coordinates.

mtllib oildrum.mtl
g default
v 3.431718 0.017931 -1.155984
v 2.920877 0.017931 -2.158564
v 2.125225 0.017931 -2.954216
v 1.122644 0.017931 -3.465057
v 0.011275 0.017931 -3.641080
v -1.100094 0.017931 -3.465056
v -2.102674 0.017931 -2.954216
v -2.898326 0.017931 -2.158563
v -3.409166 0.017931 -1.155983
v -3.585189 0.017931 -0.044615
v -3.409166 0.017931 1.066754
v -2.898326 0.017931 2.069334
v -2.102674 0.017931 2.864986
v -1.100093 0.017931 3.375826
v 0.011275 0.017931 3.551850
v 1.122643 0.017931 3.375826
v 2.125223 0.017931 2.864986
v 2.920875 0.017931 2.069334
v 3.431716 0.017931 1.066754
v 3.607739 0.017931 -0.044615
v 3.431718 7.944602 -1.155984
v 2.920877 7.944602 -2.158564
v 2.125225 7.944602 -2.954216
v 1.122644 7.944602 -3.465057
v 0.011275 7.944602 -3.641080
v -1.100094 7.944602 -3.465056
v -2.102674 7.944602 -2.954216
v -2.898326 7.944602 -2.158563
v -3.409166 7.944602 -1.155983
v -3.585189 7.944602 -0.044615
v -3.409166 7.944602 1.066754
v -2.898326 7.944602 2.069334
v -2.102674 7.944602 2.864986
v -1.100093 7.944602 3.375826
v 0.011275 7.944602 3.551850
v 1.122643 7.944602 3.375826
v 2.125223 7.944602 2.864986
v 2.920875 7.944602 2.069334
v 3.431716 7.944602 1.066754
v 3.607739 7.944602 -0.044615
v 0.011275 0.017931 -0.044615
v 0.011275 7.944602 -0.044615
vt 0.656302 0.052390
vt 0.705300 0.052390
vt 0.705300 0.454356
vt 0.656303 0.454356
vt 0.744184 0.052389
vt 0.744184 0.454356
vt 0.793181 0.052389
vt 0.793182 0.454356
vt 0.847495 0.052389
vt 0.847496 0.454356
vt 0.901809 0.052389
vt 0.901810 0.454355
vt 0.950806 0.052389
vt 0.950807 0.454355
vt 0.989691 0.052389
vt 0.989691 0.454355
vt 0.007664 0.052390
vt 0.056661 0.052390
vt 0.056661 0.454356
vt 0.007664 0.454356
vt 0.110975 0.052390
vt 0.110975 0.454356
vt 0.165289 0.052390
vt 0.165289 0.454356
vt 0.214286 0.052390
vt 0.214286 0.454356
vt 0.253171 0.052390
vt 0.253171 0.454356
vt 0.302168 0.052390
vt 0.302168 0.454356
vt 0.356482 0.052390
vt 0.356482 0.454356
vt 0.410796 0.052390
vt 0.410796 0.454356
vt 0.459793 0.052390
vt 0.459793 0.454356
vt 0.498677 0.052390
vt 0.498678 0.454356
vt 0.547675 0.052390
vt 0.547675 0.454356
vt 0.601988 0.052390
vt 0.601989 0.454356
vt 0.738245 0.678765
vt 0.764607 0.730503
vt 0.588095 0.787856
vt 0.697186 0.637705
vt 0.645447 0.611343
vt 0.588095 0.602259
vt 0.530742 0.611343
vt 0.479004 0.637705
vt 0.437944 0.678765
vt 0.411582 0.730503
vt 0.402498 0.787856
vt 0.411582 0.845208
vt 0.437944 0.896947
vt 0.479004 0.938006
vt 0.530742 0.964368
vt 0.588095 0.973452
vt 0.645447 0.964368
vt 0.697186 0.938006
vt 0.738245 0.896947
vt 0.764607 0.845208
vt 0.773691 0.787856
vt 0.365494 0.849565
vt 0.339132 0.901304
vt 0.188981 0.792213
vt 0.298072 0.942364
vt 0.246333 0.968726
vt 0.188981 0.977809
vt 0.131629 0.968726
vt 0.079890 0.942364
vt 0.038830 0.901304
vt 0.012468 0.849565
vt 0.003385 0.792213
vt 0.012468 0.734861
vt 0.038830 0.683122
vt 0.079890 0.642062
vt 0.131629 0.615700
vt 0.188981 0.606617
vt 0.246333 0.615700
vt 0.298072 0.642062
vt 0.339132 0.683122
vt 0.365494 0.734861
vt 0.374577 0.792213
vn 0.951057 0.000000 -0.309016
vn 0.809017 0.000000 -0.587785
vn 0.809017 0.000000 -0.587785
vn 0.951057 0.000000 -0.309016
vn 0.809017 0.000000 -0.587785
vn 0.587785 0.000000 -0.809017
vn 0.587785 0.000000 -0.809017
vn 0.809017 0.000000 -0.587785
vn 0.587785 0.000000 -0.809017
vn 0.309017 0.000000 -0.951056
vn 0.309017 0.000000 -0.951056
vn 0.587785 0.000000 -0.809017
vn 0.309017 0.000000 -0.951056
vn -0.000000 0.000000 -1.000000
vn -0.000000 0.000000 -1.000000
vn 0.309017 0.000000 -0.951056
vn -0.000000 0.000000 -1.000000
vn -0.309017 0.000000 -0.951057
vn -0.309017 0.000000 -0.951057
vn -0.000000 0.000000 -1.000000
vn -0.309017 0.000000 -0.951057
vn -0.587786 0.000000 -0.809017
vn -0.587786 0.000000 -0.809017
vn -0.309017 0.000000 -0.951057
vn -0.587786 0.000000 -0.809017
vn -0.809017 0.000000 -0.587785
vn -0.809017 0.000000 -0.587785
vn -0.587786 0.000000 -0.809017
vn -0.809017 0.000000 -0.587785
vn -0.951057 0.000000 -0.309017
vn -0.951057 0.000000 -0.309017
vn -0.809017 0.000000 -0.587785
vn -0.951057 0.000000 -0.309017
vn -1.000000 0.000000 0.000000
vn -1.000000 0.000000 0.000000
vn -0.951057 0.000000 -0.309017
vn -1.000000 0.000000 0.000000
vn -0.951057 0.000000 0.309017
vn -0.951057 0.000000 0.309017
vn -1.000000 0.000000 0.000000
vn -0.951057 0.000000 0.309017
vn -0.809017 0.000000 0.587785
vn -0.809017 0.000000 0.587785
vn -0.951057 0.000000 0.309017
vn -0.809017 0.000000 0.587785
vn -0.587785 0.000000 0.809017
vn -0.587785 0.000000 0.809017
vn -0.809017 0.000000 0.587785
vn -0.587785 0.000000 0.809017
vn -0.309017 0.000000 0.951057
vn -0.309017 0.000000 0.951057
vn -0.587785 0.000000 0.809017
vn -0.309017 0.000000 0.951057
vn 0.000000 0.000000 1.000000
vn 0.000000 0.000000 1.000000
vn -0.309017 0.000000 0.951057
vn 0.000000 0.000000 1.000000
vn 0.309017 0.000000 0.951056
vn 0.309017 0.000000 0.951056
vn 0.000000 0.000000 1.000000
vn 0.309017 0.000000 0.951056
vn 0.587785 0.000000 0.809017
vn 0.587785 0.000000 0.809017
vn 0.309017 0.000000 0.951056
vn 0.587785 0.000000 0.809017
vn 0.809017 0.000000 0.587785
vn 0.809017 0.000000 0.587785
vn 0.587785 0.000000 0.809017
vn 0.809017 0.000000 0.587785
vn 0.951057 0.000000 0.309017
vn 0.951057 0.000000 0.309017
vn 0.809017 0.000000 0.587785
vn 0.951057 0.000000 0.309017
vn 1.000000 0.000000 0.000001
vn 1.000000 0.000000 0.000001
vn 0.951057 0.000000 0.309017
vn 1.000000 0.000000 0.000001
vn 0.951057 0.000000 -0.309016
vn 0.951057 0.000000 -0.309016
vn 1.000000 0.000000 0.000001
vn 0.000000 -1.000000 0.000000
vn 0.000000 -1.000000 0.000000
vn 0.000000 -1.000000 0.000000
vn 0.000000 -1.000000 0.000000
vn 0.000000 -1.000000 0.000000
vn 0.000000 -1.000000 0.000000
vn 0.000000 -1.000000 0.000000
vn 0.000000 -1.000000 0.000000
vn 0.000000 -1.000000 0.000000
vn 0.000000 -1.000000 0.000000
vn 0.000000 -1.000000 0.000000
vn 0.000000 -1.000000 0.000000
vn 0.000000 -1.000000 0.000000
vn 0.000000 -1.000000 0.000000
vn 0.000000 -1.000000 0.000000
vn 0.000000 -1.000000 0.000000
vn 0.000000 -1.000000 0.000000
vn 0.000000 -1.000000 0.000000
vn 0.000000 -1.000000 0.000000
vn 0.000000 -1.000000 0.000000
vn 0.000000 -1.000000 0.000000
vn 0.000000 -1.000000 0.000000
vn 0.000000 -1.000000 0.000000
vn 0.000000 -1.000000 0.000000
vn 0.000000 -1.000000 0.000000
vn 0.000000 -1.000000 0.000000
vn 0.000000 -1.000000 0.000000
vn 0.000000 -1.000000 0.000000
vn 0.000000 -1.000000 0.000000
vn 0.000000 -1.000000 0.000000
vn 0.000000 -1.000000 0.000000
vn 0.000000 -1.000000 0.000000
vn 0.000000 -1.000000 0.000000
vn 0.000000 -1.000000 0.000000
vn 0.000000 -1.000000 0.000000
vn 0.000000 -1.000000 0.000000
vn 0.000000 -1.000000 0.000000
vn 0.000000 -1.000000 0.000000
vn 0.000000 -1.000000 0.000000
vn 0.000000 -1.000000 0.000000
vn 0.000000 -1.000000 0.000000
vn 0.000000 -1.000000 0.000000
vn 0.000000 -1.000000 0.000000
vn 0.000000 -1.000000 0.000000
vn 0.000000 -1.000000 0.000000
vn 0.000000 -1.000000 0.000000
vn 0.000000 -1.000000 0.000000
vn 0.000000 -1.000000 0.000000
vn 0.000000 -1.000000 0.000000
vn 0.000000 -1.000000 0.000000
vn 0.000000 -1.000000 0.000000
vn 0.000000 -1.000000 0.000000
vn 0.000000 -1.000000 0.000000
vn 0.000000 -1.000000 0.000000
vn 0.000000 -1.000000 0.000000
vn 0.000000 -1.000000 0.000000
vn 0.000000 -1.000000 0.000000
vn 0.000000 -1.000000 0.000000
vn 0.000000 -1.000000 0.000000
vn 0.000000 -1.000000 0.000000
vn 0.000000 1.000000 0.000000
vn 0.000000 1.000000 0.000000
vn 0.000000 1.000000 0.000000
vn 0.000000 1.000000 0.000000
vn 0.000000 1.000000 0.000000
vn 0.000000 1.000000 0.000000
vn 0.000000 1.000000 0.000000
vn 0.000000 1.000000 0.000000
vn 0.000000 1.000000 0.000000
vn 0.000000 1.000000 0.000000
vn 0.000000 1.000000 0.000000
vn 0.000000 1.000000 0.000000
vn 0.000000 1.000000 0.000000
vn 0.000000 1.000000 0.000000
vn 0.000000 1.000000 0.000000
vn 0.000000 1.000000 0.000000
vn 0.000000 1.000000 0.000000
vn 0.000000 1.000000 0.000000
vn 0.000000 1.000000 0.000000
vn 0.000000 1.000000 0.000000
vn 0.000000 1.000000 0.000000
vn 0.000000 1.000000 0.000000
vn 0.000000 1.000000 0.000000
vn 0.000000 1.000000 0.000000
vn 0.000000 1.000000 0.000000
vn 0.000000 1.000000 0.000000
vn 0.000000 1.000000 0.000000
vn 0.000000 1.000000 0.000000
vn 0.000000 1.000000 0.000000
vn 0.000000 1.000000 0.000000
vn 0.000000 1.000000 0.000000
vn 0.000000 1.000000 0.000000
vn 0.000000 1.000000 0.000000
vn 0.000000 1.000000 0.000000
vn 0.000000 1.000000 0.000000
vn 0.000000 1.000000 0.000000
vn 0.000000 1.000000 0.000000
vn 0.000000 1.000000 0.000000
vn 0.000000 1.000000 0.000000
vn 0.000000 1.000000 0.000000
vn 0.000000 1.000000 0.000000
vn 0.000000 1.000000 0.000000
vn 0.000000 1.000000 0.000000
vn 0.000000 1.000000 0.000000
vn 0.000000 1.000000 0.000000
vn 0.000000 1.000000 0.000000
vn 0.000000 1.000000 0.000000
vn 0.000000 1.000000 0.000000
vn 0.000000 1.000000 0.000000
vn 0.000000 1.000000 0.000000
vn 0.000000 1.000000 0.000000
vn 0.000000 1.000000 0.000000
vn 0.000000 1.000000 0.000000
vn 0.000000 1.000000 0.000000
vn 0.000000 1.000000 0.000000
vn 0.000000 1.000000 0.000000
vn 0.000000 1.000000 0.000000
vn 0.000000 1.000000 0.000000
vn 0.000000 1.000000 0.000000
vn 0.000000 1.000000 0.000000
s off
g oildrum:pCylinder1
usemtl initialShadingGroup
f 1/1/1 2/2/2 22/3/3 21/4/4
f 2/2/5 3/5/6 23/6/7 22/3/8
f 3/5/9 4/7/10 24/8/11 23/6/12
f 4/7/13 5/9/14 25/10/15 24/8/16
f 5/9/17 6/11/18 26/12/19 25/10/20
f 6/11/21 7/13/22 27/14/23 26/12/24
f 7/13/25 8/15/26 28/16/27 27/14/28
f 8/17/29 9/18/30 29/19/31 28/20/32
f 9/18/33 10/21/34 30/22/35 29/19/36
f 10/21/37 11/23/38 31/24/39 30/22/40
f 11/23/41 12/25/42 32/26/43 31/24/44
f 12/25/45 13/27/46 33/28/47 32/26/48
f 13/27/49 14/29/50 34/30/51 33/28/52
f 14/29/53 15/31/54 35/32/55 34/30/56
f 15/31/57 16/33/58 36/34/59 35/32/60
f 16/33/61 17/35/62 37/36/63 36/34/64
f 17/35/65 18/37/66 38/38/67 37/36/68
f 18/37/69 19/39/70 39/40/71 38/38/72
f 19/39/73 20/41/74 40/42/75 39/40/76
f 20/41/77 1/1/78 21/4/79 40/42/80
f 2/43/81 1/44/82 41/45/83
f 3/46/84 2/43/85 41/45/86
f 4/47/87 3/46/88 41/45/89
f 5/48/90 4/47/91 41/45/92
f 6/49/93 5/48/94 41/45/95
f 7/50/96 6/49/97 41/45/98
f 8/51/99 7/50/100 41/45/101
f 9/52/102 8/51/103 41/45/104
f 10/53/105 9/52/106 41/45/107
f 11/54/108 10/53/109 41/45/110
f 12/55/111 11/54/112 41/45/113
f 13/56/114 12/55/115 41/45/116
f 14/57/117 13/56/118 41/45/119
f 15/58/120 14/57/121 41/45/122
f 16/59/123 15/58/124 41/45/125
f 17/60/126 16/59/127 41/45/128
f 18/61/129 17/60/130 41/45/131
f 19/62/132 18/61/133 41/45/134
f 20/63/135 19/62/136 41/45/137
f 1/44/138 20/63/139 41/45/140
f 21/64/141 22/65/142 42/66/143
f 22/65/144 23/67/145 42/66/146
f 23/67/147 24/68/148 42/66/149
f 24/68/150 25/69/151 42/66/152
f 25/69/153 26/70/154 42/66/155
f 26/70/156 27/71/157 42/66/158
f 27/71/159 28/72/160 42/66/161
f 28/72/162 29/73/163 42/66/164
f 29/73/165 30/74/166 42/66/167
f 30/74/168 31/75/169 42/66/170
f 31/75/171 32/76/172 42/66/173
f 32/76/174 33/77/175 42/66/176
f 33/77/177 34/78/178 42/66/179
f 34/78/180 35/79/181 42/66/182
f 35/79/183 36/80/184 42/66/185
f 36/80/186 37/81/187 42/66/188
f 37/81/189 38/82/190 42/66/191
f 38/82/192 39/83/193 42/66/194
f 39/83/195 40/84/196 42/66/197
f 40/84/198 21/64/199 42/66/200
