# This file uses centimeters as units for non-parametric coordinates.

mtllib targetboard.mtl
g default
v -4.401089 -0.008280 -0.189557
v -4.401089 -0.008280 0.189557
v -4.401089 9.442669 -0.189557
v -4.401089 9.442669 0.189557
v 4.401089 9.442669 -0.189557
v 4.401089 9.442669 0.189557
v 4.401089 -0.008280 -0.189557
v 4.401089 -0.008280 0.189557
vt 0.886768 0.366726
vt 0.950442 0.366726
vt 0.950442 0.788384
vt 0.886768 0.788384
vt 0.037669 0.852057
vt 0.037669 0.788383
vt 0.430382 0.788384
vt 0.430382 0.852058
vt 0.494056 0.788383
vt 0.037669 0.366726
vt 0.430382 0.366726
vt 0.494056 0.366726
vt 0.430382 0.303052
vt 0.037669 0.303052
vn -1.000000 0.000000 0.000000
vn -1.000000 0.000000 0.000000
vn -1.000000 0.000000 0.000000
vn -1.000000 0.000000 0.000000
vn 0.000000 1.000000 0.000000
vn 0.000000 1.000000 0.000000
vn 0.000000 1.000000 0.000000
vn 0.000000 1.000000 0.000000
vn 1.000000 0.000000 -0.000000
vn 1.000000 0.000000 -0.000000
vn 1.000000 0.000000 -0.000000
vn 1.000000 0.000000 -0.000000
vn 0.000000 -1.000000 0.000000
vn 0.000000 -1.000000 0.000000
vn 0.000000 -1.000000 0.000000
vn 0.000000 -1.000000 0.000000
vn 0.000000 0.000000 1.000000
vn 0.000000 0.000000 1.000000
vn 0.000000 0.000000 1.000000
vn 0.000000 0.000000 1.000000
vn -0.000000 0.000000 -1.000000
vn -0.000000 0.000000 -1.000000
vn -0.000000 0.000000 -1.000000
vn -0.000000 0.000000 -1.000000
s off
g pCube1
usemtl initialShadingGroup
f 1/1/1 2/2/2 4/3/3 3/4/4
f 3/5/5 4/6/6 6/7/7 5/8/8
f 5/9/9 6/7/10 8/11/11 7/12/12
f 7/13/13 8/11/14 2/10/15 1/14/16
f 2/10/17 8/11/18 6/7/19 4/6/20
f 7/12/21 1/1/22 3/4/23 5/9/24
